<svg width="21" height="21" viewBox="0 0 21 21" fill="none" xmlns="http://www.w3.org/2000/svg">
<path d="M9.38641 4.44926C9.74152 4.39676 10.1078 4.36859 10.4851 4.36859C14.9456 4.36859 17.8726 8.3047 18.8559 9.86171C18.9749 10.0502 19.0344 10.1444 19.0677 10.2897C19.0927 10.3989 19.0927 10.5711 19.0677 10.6802C19.0344 10.8255 18.9744 10.9204 18.8546 11.1101C18.5926 11.5247 18.1931 12.1075 17.6639 12.7395M5.87514 5.86711C3.98603 7.1486 2.70354 8.92903 2.11521 9.86036C1.99566 10.0496 1.93589 10.1442 1.90257 10.2895C1.87754 10.3987 1.87753 10.5709 1.90254 10.68C1.93585 10.8253 1.99535 10.9195 2.11436 11.108C3.09768 12.665 6.02463 16.6011 10.4851 16.6011C12.2837 16.6011 13.8329 15.9612 15.1059 15.0953M2.62138 2.62109L18.3489 18.3486M8.63163 8.63134C8.15727 9.10569 7.86388 9.76101 7.86388 10.4848C7.86388 11.9325 9.03745 13.1061 10.4851 13.1061C11.209 13.1061 11.8643 12.8127 12.3386 12.3383" stroke="#4F545E" stroke-width="2.33" stroke-linecap="round" stroke-linejoin="round"/>
</svg>
