<svg width="21" height="21" viewBox="0 0 21 21" fill="none" xmlns="http://www.w3.org/2000/svg">
<path d="M2.11435 11.108C1.99535 10.9196 1.93586 10.8254 1.90255 10.6801C1.87753 10.571 1.87753 10.3988 1.90255 10.2897C1.93586 10.1444 1.99535 10.0502 2.11435 9.86176C3.09767 8.30476 6.02462 4.36865 10.4851 4.36865C14.9456 4.36865 17.8726 8.30476 18.8559 9.86176C18.9749 10.0502 19.0344 10.1444 19.0677 10.2897C19.0927 10.3988 19.0927 10.571 19.0677 10.6801C19.0344 10.8254 18.9749 10.9196 18.8559 11.108C17.8726 12.665 14.9456 16.6012 10.4851 16.6012C6.02462 16.6012 3.09767 12.665 2.11435 11.108Z" stroke="#4F545E" stroke-width="2.33" stroke-linecap="round" stroke-linejoin="round"/>
<path d="M10.4851 13.1062C11.9328 13.1062 13.1064 11.9326 13.1064 10.4849C13.1064 9.03723 11.9328 7.86365 10.4851 7.86365C9.03744 7.86365 7.86387 9.03723 7.86387 10.4849C7.86387 11.9326 9.03744 13.1062 10.4851 13.1062Z" stroke="#4F545E" stroke-width="2.33" stroke-linecap="round" stroke-linejoin="round"/>
</svg>
