<svg width="62" height="62" viewBox="0 0 62 62" fill="none" xmlns="http://www.w3.org/2000/svg">
<g filter="url(#filter0_d_1128_3284)">
<rect x="6" y="4" width="50" height="50" rx="25" fill="#9A52F9" shape-rendering="crispEdges"/>
<rect x="8" y="6" width="46" height="46" rx="23" stroke="white" stroke-width="4" shape-rendering="crispEdges"/>
<mask id="path-3-inside-1_1128_3284" fill="white">
<path d="M37.4 25.6C39.7196 25.6 41.6 23.7196 41.6 21.4C41.6 19.0804 39.7196 17.2 37.4 17.2C35.0804 17.2 33.2 19.0804 33.2 21.4C33.2 23.7196 35.0804 25.6 37.4 25.6Z"/>
<path d="M22.88 40C23.5521 40 23.8881 40 24.1448 39.8692C24.3706 39.7542 24.5542 39.5706 24.6692 39.3448C24.8 39.0881 24.8 38.7521 24.8 38.08V31.12C24.8 30.4479 24.8 30.1119 24.6692 29.8552C24.5542 29.6294 24.3706 29.4458 24.1448 29.3308C23.8881 29.2 23.5521 29.2 22.88 29.2L21.92 29.2C21.2479 29.2 20.9119 29.2 20.6552 29.3308C20.4294 29.4458 20.2458 29.6294 20.1308 29.8552C20 30.1119 20 30.4479 20 31.12L20 38.08C20 38.7521 20 39.0881 20.1308 39.3448C20.2458 39.5706 20.4294 39.7542 20.6552 39.8692C20.9119 40 21.2479 40 21.92 40H22.88Z"/>
<path d="M33.5426 34.0598H36.4564C36.9972 34.0598 37.523 33.8897 37.9551 33.5738L40.9726 31.3724C41.7257 30.8232 42.7798 30.8961 43.4455 31.5437C44.1848 32.2629 44.1848 33.428 43.4455 34.1461L40.8564 36.6646C40.1595 37.3425 39.2703 37.8054 38.3036 37.9937L34.6442 38.7057C33.9185 38.8466 33.1704 38.8296 32.4523 38.6547L29.1426 37.8504C28.7467 37.7532 28.3408 37.7046 27.9324 37.7046H24.8"/>
<path d="M33.5426 34.0598L33.5 33C34.5454 33 36.9091 32.9091 37.2894 32.2191V31.851C37.2894 31.0066 36.6987 30.2704 35.8569 30.0662L32.9943 29.3701C32.5285 29.2571 32.0514 29.2 31.5718 29.2C30.414 29.2 28.3183 30.1586 28.3183 30.1586L24.8 31.6299"/>
<path d="M24.8 31.6299V37.7046H27.9324C28.3408 37.7046 28.7467 37.7532 29.1426 37.8504L32.4523 38.6547C33.1704 38.8296 33.9185 38.8466 34.6442 38.7057L38.3036 37.9937C39.2703 37.8054 40.1595 37.3425 40.8564 36.6646L43.4455 34.1461C44.1848 33.428 44.1848 32.2629 43.4455 31.5437C42.7798 30.8961 41.7257 30.8232 40.9726 31.3724L37.9551 33.5738C37.523 33.8897 36.9972 34.0598 36.4564 34.0598H33.5426L33.5 33C34.5454 33 36.9091 32.9091 37.2894 32.2191V31.851C37.2894 31.0066 36.6987 30.2704 35.8569 30.0662L32.9943 29.3701C32.5285 29.2571 32.0514 29.2 31.5718 29.2C30.414 29.2 28.3183 30.1586 28.3183 30.1586L24.8 31.6299Z"/>
<path d="M31.4 24.4C32.3079 24.4 33.1485 24.1119 33.8354 23.6222C33.4327 22.9777 33.2 22.216 33.2 21.4C33.2 19.9883 33.8965 18.7392 34.9646 17.9778C34.2226 16.7901 32.9036 16 31.4 16C29.0804 16 27.2 17.8804 27.2 20.2C27.2 22.5196 29.0804 24.4 31.4 24.4Z"/>
</mask>
<path d="M37.4 25.6C39.7196 25.6 41.6 23.7196 41.6 21.4C41.6 19.0804 39.7196 17.2 37.4 17.2C35.0804 17.2 33.2 19.0804 33.2 21.4C33.2 23.7196 35.0804 25.6 37.4 25.6Z" fill="white"/>
<path d="M22.88 40C23.5521 40 23.8881 40 24.1448 39.8692C24.3706 39.7542 24.5542 39.5706 24.6692 39.3448C24.8 39.0881 24.8 38.7521 24.8 38.08V31.12C24.8 30.4479 24.8 30.1119 24.6692 29.8552C24.5542 29.6294 24.3706 29.4458 24.1448 29.3308C23.8881 29.2 23.5521 29.2 22.88 29.2L21.92 29.2C21.2479 29.2 20.9119 29.2 20.6552 29.3308C20.4294 29.4458 20.2458 29.6294 20.1308 29.8552C20 30.1119 20 30.4479 20 31.12L20 38.08C20 38.7521 20 39.0881 20.1308 39.3448C20.2458 39.5706 20.4294 39.7542 20.6552 39.8692C20.9119 40 21.2479 40 21.92 40H22.88Z" fill="white"/>
<path d="M33.5426 34.0598H36.4564C36.9972 34.0598 37.523 33.8897 37.9551 33.5738L40.9726 31.3724C41.7257 30.8232 42.7798 30.8961 43.4455 31.5437C44.1848 32.2629 44.1848 33.428 43.4455 34.1461L40.8564 36.6646C40.1595 37.3425 39.2703 37.8054 38.3036 37.9937L34.6442 38.7057C33.9185 38.8466 33.1704 38.8296 32.4523 38.6547L29.1426 37.8504C28.7467 37.7532 28.3408 37.7046 27.9324 37.7046H24.8" fill="white"/>
<path d="M33.5426 34.0598L33.5 33C34.5454 33 36.9091 32.9091 37.2894 32.2191V31.851C37.2894 31.0066 36.6987 30.2704 35.8569 30.0662L32.9943 29.3701C32.5285 29.2571 32.0514 29.2 31.5718 29.2C30.414 29.2 28.3183 30.1586 28.3183 30.1586L24.8 31.6299" fill="white"/>
<path d="M24.8 31.6299V37.7046H27.9324C28.3408 37.7046 28.7467 37.7532 29.1426 37.8504L32.4523 38.6547C33.1704 38.8296 33.9185 38.8466 34.6442 38.7057L38.3036 37.9937C39.2703 37.8054 40.1595 37.3425 40.8564 36.6646L43.4455 34.1461C44.1848 33.428 44.1848 32.2629 43.4455 31.5437C42.7798 30.8961 41.7257 30.8232 40.9726 31.3724L37.9551 33.5738C37.523 33.8897 36.9972 34.0598 36.4564 34.0598H33.5426L33.5 33C34.5454 33 36.9091 32.9091 37.2894 32.2191V31.851C37.2894 31.0066 36.6987 30.2704 35.8569 30.0662L32.9943 29.3701C32.5285 29.2571 32.0514 29.2 31.5718 29.2C30.414 29.2 28.3183 30.1586 28.3183 30.1586L24.8 31.6299Z" fill="white"/>
<path d="M31.4 24.4C32.3079 24.4 33.1485 24.1119 33.8354 23.6222C33.4327 22.9777 33.2 22.216 33.2 21.4C33.2 19.9883 33.8965 18.7392 34.9646 17.9778C34.2226 16.7901 32.9036 16 31.4 16C29.0804 16 27.2 17.8804 27.2 20.2C27.2 22.5196 29.0804 24.4 31.4 24.4Z" fill="white"/>
<path d="M32.8548 23.4261C32.7465 23.9676 33.0977 24.4945 33.6392 24.6028C34.1808 24.7111 34.7076 24.36 34.816 23.8184L33.8354 23.6222L32.8548 23.4261ZM35.9452 18.1739C36.0535 17.6324 35.7023 17.1055 35.1608 16.9972C34.6192 16.8889 34.0924 17.24 33.984 17.7816L34.9646 17.9778L35.9452 18.1739ZM33.5426 34.0598L32.5434 34.1C32.565 34.6362 33.0059 35.0598 33.5426 35.0598V34.0598ZM37.9551 33.5738L37.3657 32.766L37.365 32.7665L37.9551 33.5738ZM40.9726 31.3724L40.3834 30.5644L40.3832 30.5645L40.9726 31.3724ZM43.4455 31.5437L42.7482 32.2605L43.4455 31.5437ZM43.4455 34.1461L42.7488 33.4287L42.7482 33.4293L43.4455 34.1461ZM40.8564 36.6646L41.5537 37.3814V37.3814L40.8564 36.6646ZM38.3036 37.9937L38.4945 38.9753L38.4948 38.9753L38.3036 37.9937ZM34.6442 38.7057L34.8348 39.6873L34.8351 39.6873L34.6442 38.7057ZM32.4523 38.6547L32.689 37.6831L32.6884 37.6829L32.4523 38.6547ZM29.1426 37.8504L28.9042 38.8215L28.9064 38.8221L29.1426 37.8504ZM24.8 36.7046C24.2477 36.7046 23.8 37.1523 23.8 37.7046C23.8 38.2569 24.2477 38.7046 24.8 38.7046V37.7046V36.7046ZM33.5 33V32C33.2278 32 32.9674 32.1109 32.7788 32.3072C32.5903 32.5035 32.4899 32.7682 32.5008 33.0402L33.5 33ZM37.2894 32.2191L38.1652 32.7018C38.2467 32.554 38.2894 32.3879 38.2894 32.2191H37.2894ZM35.8569 30.0662L35.6206 31.0379L35.6213 31.0381L35.8569 30.0662ZM32.9943 29.3701L33.2306 28.3984L33.23 28.3983L32.9943 29.3701ZM28.3183 30.1586L28.7041 31.0812C28.7142 31.0769 28.7242 31.0725 28.7342 31.068L28.3183 30.1586ZM24.4142 30.7073C23.9047 30.9204 23.6643 31.5061 23.8774 32.0157C24.0905 32.5252 24.6763 32.7655 25.1858 32.5524L24.8 31.6299L24.4142 30.7073ZM33.5426 34.0598V35.0598H36.4564V34.0598V33.0598H33.5426V34.0598ZM36.4564 34.0598V35.0598C37.2062 35.0598 37.9393 34.8241 38.5452 34.3811L37.9551 33.5738L37.365 32.7665C37.1067 32.9553 36.7881 33.0598 36.4564 33.0598V34.0598ZM37.9551 33.5738L38.5445 34.3817L41.562 32.1802L40.9726 31.3724L40.3832 30.5645L37.3657 32.766L37.9551 33.5738ZM40.9726 31.3724L41.5617 32.1804C41.9234 31.9167 42.4339 31.9547 42.7482 32.2605L43.4455 31.5437L44.1427 30.8269C43.1257 29.8375 41.5279 29.7298 40.3834 30.5644L40.9726 31.3724ZM43.4455 31.5437L42.7482 32.2605C43.0843 32.5874 43.0834 33.1037 42.7488 33.4287L43.4455 34.1461L44.1421 34.8634C45.2863 33.7523 45.2854 31.9384 44.1427 30.8269L43.4455 31.5437ZM43.4455 34.1461L42.7482 33.4293L40.1591 35.9478L40.8564 36.6646L41.5537 37.3814L44.1427 34.8629L43.4455 34.1461ZM40.8564 36.6646L40.1591 35.9478C39.6036 36.4882 38.8909 36.8605 38.1124 37.0122L38.3036 37.9937L38.4948 38.9753C39.6496 38.7503 40.7154 38.1968 41.5537 37.3814L40.8564 36.6646ZM38.3036 37.9937L38.1126 37.0121L34.4532 37.7241L34.6442 38.7057L34.8351 39.6873L38.4945 38.9753L38.3036 37.9937ZM34.6442 38.7057L34.4535 37.724C33.8688 37.8376 33.2665 37.8238 32.689 37.6831L32.4523 38.6547L32.2156 39.6262C33.0743 39.8354 33.9683 39.8556 34.8348 39.6873L34.6442 38.7057ZM32.4523 38.6547L32.6884 37.6829L29.3787 36.8787L29.1426 37.8504L28.9064 38.8221L32.2161 39.6264L32.4523 38.6547ZM29.1426 37.8504L29.381 36.8792C28.9062 36.7627 28.4202 36.7046 27.9324 36.7046V37.7046V38.7046C28.2613 38.7046 28.5871 38.7437 28.9042 38.8215L29.1426 37.8504ZM27.9324 37.7046V36.7046H24.8V37.7046V38.7046H27.9324V37.7046ZM33.5426 34.0598L34.5418 34.0196L34.4992 32.9598L33.5 33L32.5008 33.0402L32.5434 34.1L33.5426 34.0598ZM33.5 33V34C34.041 34 34.9471 33.977 35.7844 33.8584C36.1996 33.7996 36.6402 33.7116 37.0244 33.5724C37.3569 33.452 37.8836 33.2127 38.1652 32.7018L37.2894 32.2191L36.4137 31.7364C36.5051 31.5705 36.5937 31.6013 36.3433 31.692C36.1448 31.7639 35.8578 31.828 35.5038 31.8782C34.8028 31.9775 34.0044 32 33.5 32V33ZM37.2894 32.2191H38.2894V31.851H37.2894H36.2894V32.2191H37.2894ZM37.2894 31.851H38.2894C38.2894 30.5285 37.3665 29.4033 36.0925 29.0944L35.8569 30.0662L35.6213 31.0381C36.0309 31.1374 36.2894 31.4847 36.2894 31.851H37.2894ZM35.8569 30.0662L36.0932 29.0946L33.2306 28.3984L32.9943 29.3701L32.758 30.3418L35.6206 31.0379L35.8569 30.0662ZM32.9943 29.3701L33.23 28.3983C32.6871 28.2666 32.1309 28.2 31.5718 28.2V29.2V30.2C31.9719 30.2 32.3698 30.2476 32.7586 30.3419L32.9943 29.3701ZM31.5718 29.2V28.2C30.7999 28.2 29.8379 28.4998 29.1735 28.7379C28.8185 28.8651 28.5036 28.9917 28.2775 29.0864C28.1641 29.1339 28.0722 29.1737 28.0078 29.2021C27.9756 29.2163 27.9502 29.2276 27.9324 29.2356C27.9235 29.2396 27.9165 29.2428 27.9114 29.2451C27.9089 29.2462 27.9069 29.2471 27.9053 29.2478C27.9046 29.2482 27.904 29.2484 27.9035 29.2487C27.9032 29.2488 27.903 29.2489 27.9028 29.249C27.9027 29.249 27.9026 29.2491 27.9025 29.2491C27.9024 29.2491 27.9023 29.2492 28.3183 30.1586C28.7342 31.068 28.7341 31.068 28.7341 31.068C28.734 31.068 28.734 31.0681 28.7339 31.0681C28.7339 31.0681 28.7339 31.0681 28.7339 31.0681C28.7339 31.0681 28.734 31.0681 28.7342 31.068C28.7347 31.0677 28.7357 31.0673 28.7372 31.0666C28.7402 31.0653 28.7451 31.0631 28.7518 31.06C28.7652 31.054 28.786 31.0447 28.8133 31.0327C28.8681 31.0086 28.949 30.9735 29.0501 30.9312C29.2532 30.8461 29.5345 30.7331 29.8482 30.6207C30.5211 30.3795 31.1859 30.2 31.5718 30.2V29.2ZM28.3183 30.1586L27.9325 29.236L24.4142 30.7073L24.8 31.6299L25.1858 32.5524L28.7041 31.0812L28.3183 30.1586ZM33.8354 23.6222L34.816 23.8184L35.9452 18.1739L34.9646 17.9778L33.984 17.7816L32.8548 23.4261L33.8354 23.6222ZM33.8354 23.6222L34.9964 25.2507C35.8573 24.637 36.0918 23.4592 35.5316 22.5626L33.8354 23.6222ZM34.9646 17.9778L36.1256 19.6063C36.9865 18.9925 37.221 17.8148 36.6608 16.9181L34.9646 17.9778ZM20 31.12H18H20ZM20.1308 29.8552L21.9128 30.7632V30.7632L20.1308 29.8552ZM21.92 29.2L21.92 27.2H21.92L21.92 29.2ZM20.6552 29.3308L19.7472 27.5488L20.6552 29.3308ZM21.92 40L21.92 42H21.92V40ZM20.6552 39.8692L21.5632 38.0872H21.5632L20.6552 39.8692ZM20 38.08H22H20ZM20.1308 39.3448L18.3488 40.2528L18.3488 40.2528L20.1308 39.3448ZM24.6692 39.3448L26.4512 40.2528V40.2528L24.6692 39.3448ZM22.88 40L22.88 38H22.88V40ZM24.1448 39.8692L25.0528 41.6512L24.1448 39.8692ZM24.6692 29.8552L26.4512 28.9472L24.6692 29.8552ZM22.88 29.2L22.88 31.2H22.88L22.88 29.2ZM24.1448 29.3308L23.2368 31.1128H23.2368L24.1448 29.3308ZM22.8 37.7046C22.8 38.8092 23.6954 39.7046 24.8 39.7046C25.9046 39.7046 26.8 38.8092 26.8 37.7046H24.8H22.8ZM26.8 31.6299C26.8 30.5253 25.9046 29.6299 24.8 29.6299C23.6954 29.6299 22.8 30.5253 22.8 31.6299H24.8H26.8ZM31.4 24.4V26.4C32.7377 26.4 33.9818 25.9741 34.9964 25.2507L33.8354 23.6222L32.6744 21.9937C32.3152 22.2498 31.8781 22.4 31.4 22.4V24.4ZM27.2 20.2H25.2C25.2 23.6242 27.9758 26.4 31.4 26.4V24.4V22.4C30.185 22.4 29.2 21.415 29.2 20.2H27.2ZM31.4 16V14C27.9758 14 25.2 16.7758 25.2 20.2H27.2H29.2C29.2 18.985 30.185 18 31.4 18V16ZM34.9646 17.9778L36.6608 16.9181C35.5688 15.1701 33.6218 14 31.4 14V16V18C32.1854 18 32.8765 18.4101 33.2684 19.0374L34.9646 17.9778ZM41.6 21.4H39.6C39.6 22.615 38.615 23.6 37.4 23.6V25.6V27.6C40.8242 27.6 43.6 24.8242 43.6 21.4H41.6ZM37.4 25.6V23.6C36.185 23.6 35.2 22.615 35.2 21.4H33.2H31.2C31.2 24.8242 33.9758 27.6 37.4 27.6V25.6ZM33.2 21.4H35.2C35.2 20.185 36.185 19.2 37.4 19.2V17.2V15.2C33.9758 15.2 31.2 17.9758 31.2 21.4H33.2ZM37.4 17.2V19.2C38.615 19.2 39.6 20.185 39.6 21.4H41.6H43.6C43.6 17.9758 40.8242 15.2 37.4 15.2V17.2ZM24.8 31.12H22.8V38.08H24.8H26.8V31.12H24.8ZM22.88 40V38H21.92V40V42H22.88V40ZM20 38.08H22V31.12H20H18V38.08H20ZM21.92 29.2L21.92 31.2L22.88 31.2L22.88 29.2L22.88 27.2L21.92 27.2L21.92 29.2ZM20 31.12H22C22 30.9474 22.0001 30.8175 22.0018 30.7064C22.0035 30.5952 22.0067 30.5317 22.0097 30.4947C22.016 30.4183 22.015 30.5626 21.9128 30.7632L20.1308 29.8552L18.3488 28.9472C18.1158 29.4045 18.0494 29.8452 18.023 30.169C17.9984 30.4694 18 30.817 18 31.12H20ZM21.92 29.2L21.92 27.2C21.617 27.2 21.2694 27.1984 20.969 27.223C20.6452 27.2494 20.2045 27.3158 19.7472 27.5488L20.6552 29.3308L21.5632 31.1128C21.3626 31.215 21.2183 31.216 21.2947 31.2097C21.3317 31.2067 21.3952 31.2035 21.5064 31.2018C21.6175 31.2001 21.7474 31.2 21.92 31.2L21.92 29.2ZM20.1308 29.8552L21.9128 30.7632C21.8361 30.9137 21.7137 31.0361 21.5632 31.1128L20.6552 29.3308L19.7472 27.5488C19.1451 27.8556 18.6556 28.3451 18.3488 28.9472L20.1308 29.8552ZM21.92 40L21.92 38C21.7474 38 21.6175 37.9999 21.5064 37.9982C21.3952 37.9965 21.3317 37.9933 21.2947 37.9903C21.2183 37.984 21.3626 37.985 21.5632 38.0872L20.6552 39.8692L19.7472 41.6512C20.2045 41.8842 20.6452 41.9506 20.969 41.977C21.2694 42.0016 21.617 42 21.92 42L21.92 40ZM20 38.08H18C18 38.383 17.9984 38.7306 18.023 39.031C18.0494 39.3548 18.1158 39.7955 18.3488 40.2528L20.1308 39.3448L21.9128 38.4368C22.015 38.6374 22.016 38.7817 22.0097 38.7053C22.0067 38.6683 22.0035 38.6048 22.0018 38.4936C22.0001 38.3825 22 38.2526 22 38.08H20ZM20.6552 39.8692L21.5632 38.0872C21.7137 38.1639 21.8361 38.2863 21.9128 38.4368L20.1308 39.3448L18.3488 40.2528C18.6556 40.8549 19.1451 41.3444 19.7472 41.6512L20.6552 39.8692ZM24.8 38.08H22.8C22.8 38.2526 22.8 38.3825 22.7982 38.4936C22.7965 38.6048 22.7933 38.6683 22.7903 38.7053C22.784 38.7817 22.785 38.6374 22.8872 38.4368L24.6692 39.3448L26.4512 40.2528C26.6842 39.7955 26.7506 39.3548 26.777 39.031C26.8016 38.7306 26.8 38.383 26.8 38.08H24.8ZM22.88 40L22.88 42C23.183 42 23.5306 42.0016 23.831 41.977C24.1548 41.9506 24.5955 41.8842 25.0528 41.6512L24.1448 39.8692L23.2368 38.0872C23.4374 37.985 23.5817 37.9841 23.5053 37.9903C23.4683 37.9933 23.4048 37.9965 23.2936 37.9982C23.1825 38 23.0526 38 22.88 38L22.88 40ZM24.6692 39.3448L22.8872 38.4368C22.9639 38.2863 23.0863 38.1639 23.2368 38.0872L24.1448 39.8692L25.0528 41.6512C25.6549 41.3444 26.1444 40.8549 26.4512 40.2528L24.6692 39.3448ZM24.8 31.12H26.8C26.8 30.817 26.8016 30.4694 26.777 30.169C26.7506 29.8452 26.6842 29.4045 26.4512 28.9472L24.6692 29.8552L22.8872 30.7632C22.785 30.5626 22.784 30.4183 22.7903 30.4947C22.7933 30.5317 22.7965 30.5952 22.7982 30.7064C22.8 30.8175 22.8 30.9474 22.8 31.12H24.8ZM22.88 29.2L22.88 31.2C23.0526 31.2 23.1825 31.2001 23.2936 31.2018C23.4048 31.2035 23.4683 31.2067 23.5053 31.2097C23.5817 31.216 23.4374 31.215 23.2368 31.1128L24.1448 29.3308L25.0528 27.5488C24.5955 27.3158 24.1548 27.2494 23.831 27.223C23.5306 27.1984 23.183 27.2 22.88 27.2L22.88 29.2ZM24.6692 29.8552L26.4512 28.9472C26.1444 28.3451 25.6549 27.8556 25.0528 27.5488L24.1448 29.3308L23.2368 31.1128C23.0863 31.0361 22.9639 30.9137 22.8872 30.7632L24.6692 29.8552ZM24.8 31.6299H22.8V37.7046H24.8H26.8V31.6299H24.8ZM33.8354 23.6222L35.5316 22.5626C35.3217 22.2265 35.2 21.8305 35.2 21.4H33.2H31.2C31.2 22.6015 31.5438 23.7288 32.1392 24.6819L33.8354 23.6222ZM33.2 21.4H35.2C35.2 20.6621 35.5613 20.0086 36.1256 19.6063L34.9646 17.9778L33.8036 16.3493C32.2317 17.4699 31.2 19.3145 31.2 21.4H33.2Z" fill="white" mask="url(#path-3-inside-1_1128_3284)"/>
<path d="M37.4551 16.5049C40.1888 16.505 42.4053 18.7213 42.4053 21.4551C42.4052 24.1887 40.1887 26.4052 37.4551 26.4053C34.7213 26.4053 32.505 24.1888 32.5049 21.4551C32.5049 18.7213 34.7213 16.5049 37.4551 16.5049Z" fill="white" stroke="#9A52F9" stroke-width="1.5" stroke-linecap="round" stroke-linejoin="round"/>
</g>
<defs>
<filter id="filter0_d_1128_3284" x="0" y="0" width="62" height="62" filterUnits="userSpaceOnUse" color-interpolation-filters="sRGB">
<feFlood flood-opacity="0" result="BackgroundImageFix"/>
<feColorMatrix in="SourceAlpha" type="matrix" values="0 0 0 0 0 0 0 0 0 0 0 0 0 0 0 0 0 0 127 0" result="hardAlpha"/>
<feOffset dy="2"/>
<feGaussianBlur stdDeviation="3"/>
<feComposite in2="hardAlpha" operator="out"/>
<feColorMatrix type="matrix" values="0 0 0 0 0 0 0 0 0 0 0 0 0 0 0 0 0 0 0.15 0"/>
<feBlend mode="normal" in2="BackgroundImageFix" result="effect1_dropShadow_1128_3284"/>
<feBlend mode="normal" in="SourceGraphic" in2="effect1_dropShadow_1128_3284" result="shape"/>
</filter>
</defs>
</svg>
