<svg width="62" height="62" viewBox="0 0 62 62" fill="none" xmlns="http://www.w3.org/2000/svg">
<g filter="url(#filter0_d_1128_3278)">
<rect x="6" y="4" width="50" height="50" rx="25" fill="#F2AD44" shape-rendering="crispEdges"/>
<rect x="8" y="6" width="46" height="46" rx="23" stroke="white" stroke-width="4" shape-rendering="crispEdges"/>
<path d="M20 21.9111C20 20.5421 20 19.8576 20.2664 19.3347C20.5008 18.8747 20.8747 18.5008 21.3347 18.2664C21.8576 18 22.5421 18 23.9111 18H38.0889C39.4579 18 40.1424 18 40.6653 18.2664C41.1253 18.5008 41.4992 18.8747 41.7336 19.3347C42 19.8576 42 20.5421 42 21.9111V36.0889C42 37.4579 42 38.1424 41.7336 38.6653C41.4992 39.1253 41.1253 39.4992 40.6653 39.7336C40.1424 40 39.4579 40 38.0889 40H23.9111C22.5421 40 21.8576 40 21.3347 39.7336C20.8747 39.4992 20.5008 39.1253 20.2664 38.6653C20 38.1424 20 37.4579 20 36.0889V21.9111Z" fill="white"/>
<path d="M34.6667 40V33.4C34.6667 32.7155 34.6667 32.3732 34.5335 32.1118C34.4163 31.8818 34.2293 31.6948 33.9993 31.5777C33.7379 31.4444 33.3956 31.4444 32.7111 31.4444H29.2889C28.6044 31.4444 28.2621 31.4444 28.0007 31.5777C27.7707 31.6948 27.5837 31.8818 27.4665 32.1118C27.3333 32.3732 27.3333 32.7155 27.3333 33.4V40M20 22.8889C20 24.9139 21.6416 26.5556 23.6667 26.5556C25.6917 26.5556 27.3333 24.9139 27.3333 22.8889C27.3333 24.9139 28.975 26.5556 31 26.5556C33.025 26.5556 34.6667 24.9139 34.6667 22.8889C34.6667 24.9139 36.3083 26.5556 38.3333 26.5556C40.3584 26.5556 42 24.9139 42 22.8889M23.9111 40H38.0889C39.4579 40 40.1424 40 40.6653 39.7336C41.1253 39.4992 41.4992 39.1253 41.7336 38.6653C42 38.1424 42 37.4579 42 36.0889V21.9111C42 20.5421 42 19.8576 41.7336 19.3347C41.4992 18.8747 41.1253 18.5008 40.6653 18.2664C40.1424 18 39.4579 18 38.0889 18H23.9111C22.5421 18 21.8576 18 21.3347 18.2664C20.8747 18.5008 20.5008 18.8747 20.2664 19.3347C20 19.8576 20 20.5421 20 21.9111V36.0889C20 37.4579 20 38.1424 20.2664 38.6653C20.5008 39.1253 20.8747 39.4992 21.3347 39.7336C21.8576 40 22.5421 40 23.9111 40Z" stroke="#F2AD44" stroke-width="1.5" stroke-linecap="round" stroke-linejoin="round"/>
</g>
<defs>
<filter id="filter0_d_1128_3278" x="0" y="0" width="62" height="62" filterUnits="userSpaceOnUse" color-interpolation-filters="sRGB">
<feFlood flood-opacity="0" result="BackgroundImageFix"/>
<feColorMatrix in="SourceAlpha" type="matrix" values="0 0 0 0 0 0 0 0 0 0 0 0 0 0 0 0 0 0 127 0" result="hardAlpha"/>
<feOffset dy="2"/>
<feGaussianBlur stdDeviation="3"/>
<feComposite in2="hardAlpha" operator="out"/>
<feColorMatrix type="matrix" values="0 0 0 0 0 0 0 0 0 0 0 0 0 0 0 0 0 0 0.15 0"/>
<feBlend mode="normal" in2="BackgroundImageFix" result="effect1_dropShadow_1128_3278"/>
<feBlend mode="normal" in="SourceGraphic" in2="effect1_dropShadow_1128_3278" result="shape"/>
</filter>
</defs>
</svg>
