<svg width="62" height="62" viewBox="0 0 62 62" fill="none" xmlns="http://www.w3.org/2000/svg">
<g filter="url(#filter0_d_1128_3275)">
<rect x="6" y="4" width="50" height="50" rx="25" fill="#73A14E" shape-rendering="crispEdges"/>
<rect x="8" y="6" width="46" height="46" rx="23" stroke="white" stroke-width="4" shape-rendering="crispEdges"/>
<path d="M36.454 37.4255V28.7447L34.2722 24.6596M36.454 37.4255C36.454 38.6767 36.454 39.3023 36.2162 39.7802C36.007 40.2006 35.6733 40.5423 35.2627 40.7565C34.796 41 34.1851 41 32.9632 41H29.7777V34.4638C29.7777 33.8919 29.7777 33.6059 29.7008 33.3874C29.6332 33.1952 29.5253 33.039 29.3926 32.9411C29.2417 32.8298 29.0441 32.8298 28.6491 32.8298H26.6739C26.2788 32.8298 26.0813 32.8298 25.9304 32.9411C25.7977 33.039 25.6898 33.1952 25.6221 33.3874C25.5452 33.6059 25.5452 33.8919 25.5452 34.4638V41H22.4908C21.2689 41 20.658 41 20.1913 40.7565C19.7807 40.5423 19.447 40.2006 19.2378 39.7802C19 39.3023 19 38.6767 19 37.4255V28.7447L21.1817 24.6596L25.182 22.3189C25.319 22.2388 25.3874 22.1987 25.4593 22.164C25.5221 22.1337 25.5896 22.1054 25.6553 22.082C25.7305 22.0551 25.8041 22.0352 25.9514 21.9955C26.4546 21.8597 26.7654 21.7861 27.1004 21.7538C27.4682 21.7184 27.8549 21.7184 28.2227 21.7538C28.5621 21.7865 28.8768 21.8616 29.3919 22.0009C29.5321 22.0389 29.6023 22.0578 29.6737 22.0831C29.7363 22.1052 29.8005 22.1316 29.8605 22.1599C29.929 22.1923 29.9946 22.2295 30.1257 22.304L34.2722 24.6596M36.454 37.4255H42.9992L42.9992 21.3044M26.6034 21.816C26.9828 21.7118 27.1726 21.6597 27.3809 21.6397C27.5649 21.622 27.7582 21.622 27.9421 21.6397C28.1505 21.6597 28.3402 21.7118 28.7197 21.816M34.2722 24.6596L34.2722 21.3044M42.9992 21.3044H34.2722M42.9992 21.3044C42.9992 21.3044 43.1641 17 38.6357 17C34.1074 17 34.2722 21.3044 34.2722 21.3044" stroke="#73A14E" stroke-width="1.5" stroke-linecap="round" stroke-linejoin="round"/>
</g>
<defs>
<filter id="filter0_d_1128_3275" x="0" y="0" width="62" height="62" filterUnits="userSpaceOnUse" color-interpolation-filters="sRGB">
<feFlood flood-opacity="0" result="BackgroundImageFix"/>
<feColorMatrix in="SourceAlpha" type="matrix" values="0 0 0 0 0 0 0 0 0 0 0 0 0 0 0 0 0 0 127 0" result="hardAlpha"/>
<feOffset dy="2"/>
<feGaussianBlur stdDeviation="3"/>
<feComposite in2="hardAlpha" operator="out"/>
<feColorMatrix type="matrix" values="0 0 0 0 0 0 0 0 0 0 0 0 0 0 0 0 0 0 0.15 0"/>
<feBlend mode="normal" in2="BackgroundImageFix" result="effect1_dropShadow_1128_3275"/>
<feBlend mode="normal" in="SourceGraphic" in2="effect1_dropShadow_1128_3275" result="shape"/>
</filter>
</defs>
</svg>
