<svg width="62" height="62" viewBox="0 0 62 62" fill="none" xmlns="http://www.w3.org/2000/svg">
<g filter="url(#filter0_d_1128_3287)">
<rect x="6" y="4" width="50" height="50" rx="25" fill="#E3007D" shape-rendering="crispEdges"/>
<rect x="8" y="6" width="46" height="46" rx="23" stroke="white" stroke-width="4" shape-rendering="crispEdges"/>
<path d="M29.964 16.242C30.3421 16.032 30.5312 15.9269 30.7314 15.8857C30.9086 15.8493 31.0914 15.8493 31.2686 15.8857C31.4688 15.9269 31.6579 16.032 32.036 16.242L41.9027 21.7235C42.3021 21.9454 42.5018 22.0563 42.6472 22.2141C42.7758 22.3537 42.8731 22.5191 42.9327 22.6994C43 22.9031 43 23.1315 43 23.5884V34.4112C43 34.868 43 35.0965 42.9327 35.3002C42.8731 35.4804 42.7758 35.6459 42.6472 35.7855C42.5018 35.9433 42.3021 36.0542 41.9027 36.2761L32.036 41.7575C31.6579 41.9676 31.4688 42.0727 31.2686 42.1138C31.0914 42.1503 30.9086 42.1503 30.7314 42.1138C30.5312 42.0727 30.3421 41.9676 29.964 41.7575L20.0973 36.2761C19.6979 36.0542 19.4982 35.9433 19.3528 35.7855C19.2242 35.6459 19.1269 35.4804 19.0673 35.3002C19 35.0965 19 34.8681 19 34.4112V23.5884C19 23.1315 19 22.9031 19.0673 22.6994C19.1269 22.5191 19.2242 22.3537 19.3528 22.2141C19.4982 22.0563 19.6979 21.9454 20.0973 21.7235L29.964 16.242Z" fill="white"/>
<path d="M42.3333 22.7035L31 28.9997M31 28.9997L19.6666 22.7035M31 28.9997L31 41.6665M43 34.4112V23.5884C43 23.1315 43 22.9031 42.9327 22.6994C42.8731 22.5191 42.7758 22.3537 42.6472 22.2141C42.5018 22.0563 42.3021 21.9454 41.9027 21.7235L32.036 16.242C31.6579 16.032 31.4688 15.9269 31.2686 15.8857C31.0914 15.8493 30.9086 15.8493 30.7314 15.8857C30.5312 15.9269 30.3421 16.032 29.964 16.242L20.0973 21.7235C19.6979 21.9454 19.4982 22.0563 19.3528 22.2141C19.2242 22.3537 19.1269 22.5191 19.0673 22.6994C19 22.9031 19 23.1315 19 23.5884V34.4112C19 34.8681 19 35.0965 19.0673 35.3002C19.1269 35.4804 19.2242 35.6459 19.3528 35.7855C19.4982 35.9433 19.6979 36.0542 20.0973 36.2761L29.964 41.7575C30.3421 41.9676 30.5312 42.0727 30.7314 42.1138C30.9086 42.1503 31.0914 42.1503 31.2686 42.1138C31.4688 42.0727 31.6579 41.9676 32.036 41.7575L41.9027 36.2761C42.3021 36.0542 42.5018 35.9433 42.6472 35.7855C42.7758 35.6459 42.8731 35.4804 42.9327 35.3002C43 35.0965 43 34.8681 43 34.4112Z" stroke="#E3007D" stroke-width="1.5" stroke-linecap="round" stroke-linejoin="round"/>
<path d="M37 25.6667L25 19" stroke="#E3007D" stroke-width="1.5" stroke-linecap="round" stroke-linejoin="round"/>
</g>
<defs>
<filter id="filter0_d_1128_3287" x="0" y="0" width="62" height="62" filterUnits="userSpaceOnUse" color-interpolation-filters="sRGB">
<feFlood flood-opacity="0" result="BackgroundImageFix"/>
<feColorMatrix in="SourceAlpha" type="matrix" values="0 0 0 0 0 0 0 0 0 0 0 0 0 0 0 0 0 0 127 0" result="hardAlpha"/>
<feOffset dy="2"/>
<feGaussianBlur stdDeviation="3"/>
<feComposite in2="hardAlpha" operator="out"/>
<feColorMatrix type="matrix" values="0 0 0 0 0 0 0 0 0 0 0 0 0 0 0 0 0 0 0.15 0"/>
<feBlend mode="normal" in2="BackgroundImageFix" result="effect1_dropShadow_1128_3287"/>
<feBlend mode="normal" in="SourceGraphic" in2="effect1_dropShadow_1128_3287" result="shape"/>
</filter>
</defs>
</svg>
