<svg width="62" height="62" viewBox="0 0 62 62" fill="none" xmlns="http://www.w3.org/2000/svg">
<g filter="url(#filter0_d_1128_3281)">
<rect x="6" y="4" width="50" height="50" rx="25" fill="#47BAC7" shape-rendering="crispEdges"/>
<rect x="8" y="6" width="46" height="46" rx="23" stroke="white" stroke-width="4" shape-rendering="crispEdges"/>
<path d="M40.1865 17.3164C40.7264 17.2393 41.2737 17.2292 41.8154 17.2871L42.0469 17.3164L42.6035 17.3955L42.6836 17.9521C43.1849 21.4614 40.8167 24.7174 37.3604 25.3496C38.38 25.513 39.3762 25.9184 40.2598 26.5811C40.5591 26.8055 40.8384 27.0549 41.0947 27.3262L41.3428 27.6045L41.3496 27.6123L41.3564 27.6211L41.5625 27.8799L41.9229 28.333L41.5752 28.7969C40.1748 30.6639 37.9722 31.5723 35.8057 31.4062C36.0272 31.5867 36.2376 31.7799 36.4336 31.9873L36.6816 32.2656L36.6885 32.2734L36.6953 32.2822L36.9014 32.541L37.2617 32.9941L36.9141 33.458C35.5136 35.3251 33.3111 36.2334 31.1445 36.0674C31.366 36.2478 31.5765 36.441 31.7725 36.6484L32.0205 36.9268L32.0273 36.9346L32.0342 36.9434L32.2402 37.2021L32.6006 37.6553L32.2529 38.1191C30.0737 41.0246 25.9515 41.6137 23.0459 39.4346C22.6471 39.1355 22.2846 38.7917 21.9639 38.4111L21.957 38.4033L21.9502 38.3945L21.7979 38.2031C18.9653 36.0078 18.4074 31.9389 20.5654 29.0615C20.8645 28.6627 21.2083 28.2993 21.5889 27.9785L21.5967 27.9717L21.6055 27.9658L21.8643 27.7598L22.3174 27.3984L22.7812 27.7461C23.2181 28.0738 23.601 28.4468 23.9316 28.8516C23.8127 27.315 24.2292 25.7302 25.2266 24.4004C25.5257 24.0016 25.8695 23.6381 26.25 23.3174L26.2578 23.3105L26.2666 23.3047L26.5254 23.0986L26.9785 22.7373L27.4424 23.085C27.8793 23.4126 28.2622 23.7856 28.5928 24.1904C28.4738 22.6538 28.8903 21.0691 29.8877 19.7393C30.1868 19.3405 30.5306 18.977 30.9111 18.6562L30.9189 18.6494L30.9277 18.6426L31.1865 18.4365L31.6396 18.0762L32.1035 18.4238C33.5222 19.488 34.386 21.0159 34.6475 22.6387C35.1436 19.9344 37.3147 17.7267 40.1865 17.3164ZM25.3896 32.502C25.4505 33.2863 25.372 34.0824 25.1475 34.8516C25.909 34.6297 26.707 34.5477 27.5 34.6084C27.1825 34.3496 26.8889 34.0631 26.625 33.75L26.6182 33.7422L26.6113 33.7334L26.458 33.541C26.0558 33.2292 25.6988 32.8807 25.3896 32.502ZM30.0508 27.8408C30.1116 28.6248 30.0338 29.4207 29.8096 30.1895C30.5711 29.9677 31.3691 29.8865 32.1621 29.9473C31.8443 29.6884 31.5502 29.4021 31.2861 29.0889L31.2783 29.0811L31.2725 29.0723L31.1191 28.8799C30.7169 28.568 30.3599 28.2195 30.0508 27.8408ZM34.624 24.8799C34.584 25.0976 34.5332 25.314 34.4707 25.5283C34.6811 25.4671 34.8944 25.417 35.1094 25.377L34.6885 25.3291L34.624 24.8799Z" fill="white" stroke="#47BAC7" stroke-width="1.5" stroke-linecap="round"/>
</g>
<defs>
<filter id="filter0_d_1128_3281" x="0" y="0" width="62" height="62" filterUnits="userSpaceOnUse" color-interpolation-filters="sRGB">
<feFlood flood-opacity="0" result="BackgroundImageFix"/>
<feColorMatrix in="SourceAlpha" type="matrix" values="0 0 0 0 0 0 0 0 0 0 0 0 0 0 0 0 0 0 127 0" result="hardAlpha"/>
<feOffset dy="2"/>
<feGaussianBlur stdDeviation="3"/>
<feComposite in2="hardAlpha" operator="out"/>
<feColorMatrix type="matrix" values="0 0 0 0 0 0 0 0 0 0 0 0 0 0 0 0 0 0 0.15 0"/>
<feBlend mode="normal" in2="BackgroundImageFix" result="effect1_dropShadow_1128_3281"/>
<feBlend mode="normal" in="SourceGraphic" in2="effect1_dropShadow_1128_3281" result="shape"/>
</filter>
</defs>
</svg>
