<svg width="24" height="24" viewBox="0 0 24 24" fill="none" xmlns="http://www.w3.org/2000/svg">
<path d="M15.817 4.77403C19.4365 8.39278 18.9093 13.249 16.0795 16.081C13.2498 18.913 8.39878 19.4448 4.77403 15.817M15.817 4.77403L17.1325 3.45778C17.2026 3.38907 17.2969 3.35059 17.395 3.35059C17.4932 3.35059 17.5874 3.38907 17.6575 3.45778C18.601 4.38771 19.351 5.49512 19.8646 6.71622C20.3781 7.93731 20.645 9.24796 20.6497 10.5726C20.6545 11.8973 20.3971 13.2098 19.8924 14.4346C19.3876 15.6594 18.6456 16.7722 17.7089 17.7089C16.7722 18.6456 15.6594 19.3876 14.4346 19.8924C13.2098 20.3971 11.8973 20.6545 10.5726 20.6497C9.24796 20.645 7.93731 20.3781 6.71622 19.8646C5.49512 19.351 4.38771 18.601 3.45778 17.6575C3.38907 17.5874 3.35059 17.4932 3.35059 17.395C3.35059 17.2969 3.38907 17.2026 3.45778 17.1325L4.77403 15.817M15.817 4.77403L4.77403 15.817" stroke="#4F545E" stroke-width="2" stroke-linecap="round" stroke-linejoin="round"/>
<path d="M13.0225 13.2493C13.3425 13.5688 13.429 14.0017 13.2153 14.2149C13.0016 14.4281 12.5697 14.3416 12.2497 14.0221C11.9297 13.7026 11.8432 13.2697 12.0564 13.0565C12.2695 12.8434 12.7025 12.9293 13.0225 13.2493Z" stroke="#4F545E" stroke-width="2" stroke-linecap="round" stroke-linejoin="round"/>
<path d="M13.3623 10.5459C13.3623 10.6906 13.4487 10.8295 13.6024 10.9319C13.7561 11.0342 13.9646 11.0917 14.1819 11.0917C14.3993 11.0917 14.6078 11.0342 14.7615 10.9319C14.9152 10.8295 15.0016 10.6906 15.0016 10.5459C15.0016 10.4011 14.9152 10.2623 14.7615 10.1599C14.6078 10.0575 14.3993 10 14.1819 10C13.9646 10 13.7561 10.0575 13.6024 10.1599C13.4487 10.2623 13.3623 10.4011 13.3623 10.5459Z" stroke="#4F545E" stroke-width="2" stroke-linecap="round" stroke-linejoin="round"/>
<path d="M10.0923 15.1804C10.0923 15.6337 9.84773 16 9.54642 16C9.24512 16 9 15.6337 9 15.1804C9 14.7271 9.24457 14.3613 9.54642 14.3613C9.84828 14.3613 10.0923 14.7282 10.0923 15.1804Z" stroke="#4F545E" stroke-width="2" stroke-linecap="round" stroke-linejoin="round"/>
</svg>
