<svg width="24" height="24" viewBox="0 0 24 24" fill="none" xmlns="http://www.w3.org/2000/svg">
<path d="M10.9561 4H15.1309C16.1163 4.00013 17.0891 4.43944 17.8262 5.26855C18.5668 6.1018 19 7.25527 19 8.47852C18.9999 9.70167 18.5668 10.8543 17.8262 11.6875C17.089 12.5168 16.1164 12.9559 15.1309 12.9561H13.3916C12.2558 12.9561 11.1937 13.4651 10.4307 14.3232C9.67104 15.1778 9.26074 16.3148 9.26074 17.4785C9.26068 18.1826 9.01099 18.8375 8.59668 19.3037C8.18569 19.7661 7.65519 19.9999 7.13086 20C6.60639 20 6.07517 19.7662 5.66406 19.3037C5.24979 18.8375 5.00006 18.1826 5 17.4785V10.8262C5 8.98031 5.65319 7.23057 6.78516 5.95703C7.91368 4.68745 9.41701 4.00014 10.9561 4Z" stroke="#4F545E" stroke-width="2" stroke-linecap="round" stroke-linejoin="round"/>
<path d="M11.708 7H14.6484C15.022 7.00009 15.371 7.14186 15.6211 7.37988C15.8696 7.61661 16 7.92753 16 8.24023C15.9999 8.55286 15.8696 8.86294 15.6211 9.09961C15.371 9.33778 15.0221 9.48038 14.6484 9.48047H12.5898C11.4821 9.4805 10.6296 9.65186 9.9668 9.97559C9.28134 10.3104 8.86833 10.7742 8.59766 11.2275C8.46917 11.4427 8.37673 11.6487 8.30859 11.8066C8.29448 11.8393 8.27995 11.8679 8.26855 11.8945C8.21874 11.8622 8.17288 11.8266 8.13574 11.7842C8.03443 11.6684 7.99085 11.5293 8.00098 11.3965C8.00291 11.3712 8.0039 11.3457 8.00391 11.3203V10.4805C8.00391 9.57376 8.38178 8.69292 9.07129 8.03613C9.76252 7.37779 10.7105 7.00005 11.708 7Z" stroke="#4F545E" stroke-width="2" stroke-linecap="round" stroke-linejoin="round"/>
<path d="M8 16.5C8 16.6326 7.94728 16.7597 7.85352 16.8535C7.75975 16.9473 7.63261 17 7.5 17C7.40056 17 7.30419 16.9704 7.22266 16.916L7.14648 16.8535C7.12303 16.8301 7.10212 16.8045 7.08398 16.7773C7.02963 16.6958 7 16.5994 7 16.5C7 16.4006 7.02963 16.3042 7.08398 16.2227C7.10212 16.1955 7.12303 16.1699 7.14648 16.1465C7.16994 16.123 7.19546 16.1021 7.22266 16.084C7.30419 16.0296 7.40056 16 7.5 16C7.59944 16 7.69581 16.0296 7.77734 16.084C7.80454 16.1021 7.83006 16.123 7.85352 16.1465L7.91602 16.2227C7.97037 16.3042 8 16.4006 8 16.5Z" stroke="#4F545E" stroke-width="2" stroke-linecap="round" stroke-linejoin="round"/>
</svg>
